<?xml version="1.0" encoding="utf-8"?>
<!-- Svg Vector Icons : http://www.onlinewebfonts.com/icon -->
<!DOCTYPE svg PUBLIC "-//W3C//DTD SVG 1.1//EN" "http://www.w3.org/Graphics/SVG/1.1/DTD/svg11.dtd">
<svg version="1.1" xmlns="http://www.w3.org/2000/svg" xmlns:xlink="http://www.w3.org/1999/xlink" x="0px" y="0px" viewBox="0 0 1000 1000" enable-background="new 0 0 1000 1000" xml:space="preserve">
<metadata> Svg Vector Icons : http://www.onlinewebfonts.com/icon </metadata>
<g><g><path style="fill:#e6c300;" d="M848.5,10h-570c-12.6,0-22.8,10.2-22.8,22.8v340.8h31.4c-9.4-12-14.5-26.8-14.5-42.3c0-18.4,7.2-35.7,20.2-48.7c2.7-2.7,5.6-5.1,8.6-7.2V55.6h524.4V72L586.3,245.8V990L827,815.2c3.1,9,11.5,15.5,21.5,15.5c12.6,0,22.8-10.2,22.8-22.8V32.8C871.3,20.2,861.1,10,848.5,10z M676.8,635.2c-10.8,0-19.7-13.3-22-31h-25.7v-19.9h26c2.7-16.7,11.3-29,21.6-29c12.5,0,22.6,17.9,22.6,40C699.4,617.3,689.3,635.2,676.8,635.2z M292.7,602.3c2.7,2.7,5.6,5,8.6,7.2v198.5c0,12.6-10.2,22.8-22.8,22.8c-12.6,0-22.8-10.2-22.8-22.8V511.2h31.4C266,538.2,267.9,577.4,292.7,602.3z M455.8,421.3c9.1,9.1,9.1,23.7,0,32.8L344.7,565.2c-4.5,4.5-10.5,6.8-16.4,6.8c-5.9,0-11.9-2.3-16.4-6.8c-9.1-9.1-9-23.8,0-32.8l71.5-71.5H151.9c-12.8,0-23.2-10.4-23.2-23.2c0-12.8,10.4-23.2,23.2-23.2h231.5L311.9,343c-9-9-9.1-23.7,0-32.8c9.1-9.1,23.8-9.1,32.8,0L455.8,421.3z"/></g><g></g><g></g><g></g><g></g><g></g><g></g><g></g><g></g><g></g><g></g><g></g><g></g><g></g><g></g><g></g></g>
</svg>